<?xml version="1.0" encoding="UTF-8"?>
<!-- Created with Grafika (https://www.grafika.cc/) -->
<svg xmlns="http://www.w3.org/2000/svg" xmlns:svg="http://www.w3.org/2000/svg" xmlns:xlink="http://www.w3.org/1999/xlink" width="2048" height="2048" viewBox="0 0 2048 2048" preserveAspectRatio="xMidYMid meet">
	<rect x="0" y="0" width="2048" height="2048" fill="#000000" />
	<g transform="matrix(1, 0, 0, 1, 1024, 1024)">
		<rect transform="matrix(14.335999488830566, 0, 0, 14.335999488830566, 0, 0)" x="-50" y="-50" width="100" height="100" style="fill:#000000;stroke:#1CC601;stroke-linecap:round;stroke-linejoin:round;stroke-width:3.17;" />
		<g transform="matrix(5.623981475830078, 0, 0, 5.623981475830078, 0, 0)">
			<path d="M-85.49,30.5 L-85.49,-39.59 L-60.1,-39.59 Q-57,-39.59 -54.9,-37.44 Q-52.8,-35.3 -52.8,-32.39 L-52.8,-12.49 Q-50.8,-11.81 -49.51,-9.91 Q-48.19,-8 -48.19,-5.8 L-48.19,23.2 Q-48.19,26.3 -50.29,28.4 Q-52.39,30.5 -55.39,30.5 L-85.49,30.5 ZM-76.09,-12.91 L-65.79,-12.91 Q-64.3,-12.91 -63.2,-14.01 Q-62.11,-15.11 -62.11,-16.5 L-62.11,-26.7 Q-62.11,-28.19 -63.2,-29.24 Q-64.3,-30.29 -65.79,-30.29 L-76.09,-30.29 L-76.09,-12.91 ZM-76.09,21.2 L-61.01,21.2 Q-59.59,21.2 -58.54,20.15 Q-57.49,19.1 -57.49,17.51 L-57.49,-0.09 Q-57.49,-1.51 -58.54,-2.61 Q-59.59,-3.7 -61.01,-3.7 L-76.09,-3.7 L-76.09,21.2 ZM-35.39,30.5 Q-38.49,30.5 -40.59,28.35 Q-42.69,26.2 -42.69,23.2 L-42.69,-12.2 Q-42.69,-15.2 -40.59,-17.35 Q-38.49,-19.5 -35.39,-19.5 L-21.79,-19.5 Q-18.79,-19.5 -16.69,-17.35 Q-14.59,-15.2 -14.59,-12.2 L-14.59,23.2 Q-14.59,26.2 -16.69,28.35 Q-18.79,30.5 -21.79,30.5 L-35.39,30.5 ZM-29.7,21.1 L-27.6,21.1 Q-26.09,21.1 -24.99,20.05 Q-23.89,19 -23.89,17.51 L-23.89,-6.51 Q-23.89,-8 -24.99,-9.05 Q-26.09,-10.1 -27.6,-10.1 L-29.7,-10.1 Q-31.19,-10.1 -32.24,-9.05 Q-33.29,-8 -33.29,-6.51 L-33.29,17.51 Q-33.29,19 -32.24,20.05 Q-31.19,21.1 -29.7,21.1 ZM-0.39,30.5 Q-3.49,30.5 -5.59,28.35 Q-7.69,26.2 -7.69,23.2 L-7.69,-12.2 Q-7.69,-15.2 -5.59,-17.35 Q-3.49,-19.5 -0.39,-19.5 L13.21,-19.5 Q16.21,-19.5 18.31,-17.35 Q20.41,-15.2 20.41,-12.2 L20.41,23.2 Q20.41,26.2 18.31,28.35 Q16.21,30.5 13.21,30.5 L-0.39,30.5 ZM5.3,21.1 L7.4,21.1 Q8.91,21.1 10.01,20.05 Q11.11,19 11.11,17.51 L11.11,-6.51 Q11.11,-8 10.01,-9.05 Q8.91,-10.1 7.4,-10.1 L5.3,-10.1 Q3.81,-10.1 2.76,-9.05 Q1.71,-8 1.71,-6.51 L1.71,17.51 Q1.71,19 2.76,20.05 Q3.81,21.1 5.3,21.1 ZM27.5,30.5 L27.5,-42.4 L36.9,-44.6 L36.9,5.5 L46.3,-19.5 L55.7,-19.5 L46.3,5.5 L55.7,30.5 L46.3,30.5 L41.59,17.9 L36.9,30.5 L27.5,30.5 ZM66.71,30.5 Q63.7,30.5 61.6,28.35 Q59.5,26.2 59.5,23.2 L59.5,14.9 L68.81,14.9 L68.81,17.51 Q68.81,19 69.9,20.05 Q71,21.1 72.49,21.1 L74.59,21.1 Q76.11,21.1 77.16,20.05 Q78.21,19 78.21,17.51 L78.21,13.8 Q78.21,12.31 77.16,11.26 Q76.11,10.21 74.59,10.21 L66.71,10.21 Q63.7,10.21 61.6,8.06 Q59.5,5.89 59.5,2.91 L59.5,-12.2 Q59.5,-15.2 61.6,-17.35 Q63.7,-19.5 66.71,-19.5 L80.4,-19.5 Q83.41,-19.5 85.5,-17.35 Q87.6,-15.2 87.6,-12.2 L87.6,-3.9 L78.21,-3.9 L78.21,-6.51 Q78.21,-8 77.16,-9.05 Q76.11,-10.1 74.59,-10.1 L72.49,-10.1 Q71,-10.1 69.9,-9.05 Q68.81,-8 68.81,-6.51 L68.81,-2.8 Q68.81,-1.31 69.9,-0.26 Q71,0.79 72.49,0.79 L80.4,0.79 Q83.41,0.79 85.5,2.96 Q87.6,5.11 87.6,8.09 L87.6,23.59 Q87.51,26.4 85.41,28.45 Q83.31,30.5 80.4,30.5 L66.71,30.5 Z" fill="#1CC601" fill-rule="evenodd" />
		</g>
	</g>
</svg>